<?xml version="1.0" encoding="utf-8"?>
<!-- Generator: Adobe Illustrator 15.0.1, SVG Export Plug-In . SVG Version: 6.00 Build 0)  -->
<!DOCTYPE svg PUBLIC "-//W3C//DTD SVG 1.0//EN" "http://www.w3.org/TR/2001/REC-SVG-20010904/DTD/svg10.dtd">
<svg version="1.0" xmlns="http://www.w3.org/2000/svg" xmlns:xlink="http://www.w3.org/1999/xlink" x="0px" y="0px" width="68px"
	 height="29px" viewBox="0 0 68 29" enable-background="new 0 0 68 29" xml:space="preserve">
<g id="menu" display="none">
	<g display="inline">
		<linearGradient id="SVGID_1_" gradientUnits="userSpaceOnUse" x1="33.9995" y1="0.25" x2="33.9995" y2="16.3955">
			<stop  offset="0" style="stop-color:#5E5E5E"/>
			<stop  offset="1" style="stop-color:#000000"/>
		</linearGradient>
		<path fill="url(#SVGID_1_)" d="M0.25,19.75c0,4.971,4.029,9,9,9h49.5c4.971,0,9-4.029,9-9V9.25c0-4.971-4.029-9-9-9H9.25
			c-4.971,0-9,4.029-9,9V19.75z"/>
		<path d="M58.75,29H9.25C4.149,29,0,24.851,0,19.75V9.25C0,4.149,4.149,0,9.25,0h49.5C63.851,0,68,4.149,68,9.25v10.5
			C68,24.851,63.851,29,58.75,29z M9.25,0.5C4.425,0.5,0.5,4.425,0.5,9.25v10.5c0,4.824,3.925,8.75,8.75,8.75h49.5
			c4.825,0,8.75-3.926,8.75-8.75V9.25c0-4.825-3.925-8.75-8.75-8.75H9.25z"/>
	</g>
	<g display="inline">
		<path fill="#FFFFFF" d="M21.944,8.598h3.462v11.516h-2.242v-7.789c0-0.224,0.003-0.538,0.008-0.941
			c0.006-0.403,0.008-0.715,0.008-0.934l-2.182,9.664h-2.339l-2.167-9.664c0,0.219,0.003,0.53,0.008,0.934
			c0.006,0.404,0.008,0.718,0.008,0.941v7.789h-2.242V8.598h3.502l2.096,9.055L21.944,8.598z"/>
		<path fill="#FFFFFF" d="M33.002,11.77c0.595,0.266,1.086,0.686,1.473,1.26c0.348,0.506,0.574,1.093,0.678,1.761
			c0.061,0.391,0.084,0.955,0.074,1.69h-6.203c0.035,0.854,0.332,1.453,0.891,1.797c0.34,0.214,0.75,0.32,1.229,0.32
			c0.507,0,0.919-0.13,1.236-0.391c0.172-0.141,0.325-0.336,0.457-0.586h2.273c-0.06,0.506-0.334,1.019-0.824,1.539
			c-0.764,0.828-1.832,1.242-3.205,1.242c-1.133,0-2.133-0.35-2.999-1.048s-1.3-1.835-1.3-3.409c0-1.475,0.392-2.606,1.174-3.394
			c0.781-0.787,1.797-1.181,3.045-1.181C31.741,11.371,32.408,11.504,33.002,11.77z M29.672,13.693
			c-0.314,0.325-0.512,0.764-0.594,1.318h3.836c-0.04-0.591-0.238-1.04-0.593-1.346c-0.354-0.306-0.795-0.459-1.32-0.459
			C30.43,13.207,29.986,13.369,29.672,13.693z"/>
		<path fill="#FFFFFF" d="M43.219,12.086c0.558,0.461,0.836,1.226,0.836,2.293v5.734h-2.281v-5.18c0-0.448-0.059-0.792-0.178-1.031
			c-0.217-0.438-0.631-0.656-1.24-0.656c-0.75,0-1.266,0.32-1.544,0.961c-0.146,0.339-0.218,0.771-0.218,1.297v4.609h-2.227v-8.5
			h2.156v1.242c0.285-0.438,0.555-0.752,0.81-0.945c0.456-0.344,1.034-0.516,1.735-0.516C41.944,11.395,42.661,11.625,43.219,12.086
			z"/>
		<path fill="#FFFFFF" d="M48.344,11.598v5.133c0,0.484,0.058,0.85,0.172,1.094c0.201,0.433,0.598,0.648,1.189,0.648
			c0.756,0,1.274-0.307,1.555-0.922c0.145-0.333,0.217-0.773,0.217-1.32v-4.633h2.258v8.516H51.57V18.91
			c-0.02,0.026-0.072,0.104-0.155,0.234c-0.083,0.131-0.182,0.245-0.296,0.344c-0.348,0.312-0.685,0.526-1.01,0.641
			c-0.324,0.114-0.705,0.172-1.141,0.172c-1.257,0-2.104-0.453-2.539-1.359c-0.244-0.5-0.367-1.236-0.367-2.211v-5.133H48.344z"/>
	</g>
</g>
<g id="menu_x5F_active" display="none">
	<g display="inline">
		<linearGradient id="SVGID_2_" gradientUnits="userSpaceOnUse" x1="33.9995" y1="0.25" x2="33.9995" y2="16.3955">
			<stop  offset="0" style="stop-color:#5D6066"/>
			<stop  offset="1" style="stop-color:#1E2329"/>
		</linearGradient>
		<path fill="url(#SVGID_2_)" d="M0.25,19.75c0,4.971,4.029,9,9,9h49.5c4.971,0,9-4.029,9-9V9.25c0-4.971-4.029-9-9-9H9.25
			c-4.971,0-9,4.029-9,9V19.75z"/>
		<path d="M58.75,29H9.25C4.149,29,0,24.851,0,19.75V9.25C0,4.149,4.149,0,9.25,0h49.5C63.851,0,68,4.149,68,9.25v10.5
			C68,24.851,63.851,29,58.75,29z M9.25,0.5C4.425,0.5,0.5,4.425,0.5,9.25v10.5c0,4.824,3.925,8.75,8.75,8.75h49.5
			c4.825,0,8.75-3.926,8.75-8.75V9.25c0-4.825-3.925-8.75-8.75-8.75H9.25z"/>
	</g>
	<g display="inline">
		<path fill="#FFFFFF" d="M21.944,8.598h3.462v11.516h-2.242v-7.789c0-0.224,0.003-0.538,0.008-0.941
			c0.006-0.403,0.008-0.715,0.008-0.934l-2.182,9.664h-2.339l-2.167-9.664c0,0.219,0.003,0.53,0.008,0.934
			c0.006,0.404,0.008,0.718,0.008,0.941v7.789h-2.242V8.598h3.502l2.096,9.055L21.944,8.598z"/>
		<path fill="#FFFFFF" d="M33.002,11.77c0.595,0.266,1.086,0.686,1.473,1.26c0.348,0.506,0.574,1.093,0.678,1.761
			c0.061,0.391,0.084,0.955,0.074,1.69h-6.203c0.035,0.854,0.332,1.453,0.891,1.797c0.34,0.214,0.75,0.32,1.229,0.32
			c0.507,0,0.919-0.13,1.236-0.391c0.172-0.141,0.325-0.336,0.457-0.586h2.273c-0.06,0.506-0.334,1.019-0.824,1.539
			c-0.764,0.828-1.832,1.242-3.205,1.242c-1.133,0-2.133-0.35-2.999-1.048s-1.3-1.835-1.3-3.409c0-1.475,0.392-2.606,1.174-3.394
			c0.781-0.787,1.797-1.181,3.045-1.181C31.741,11.371,32.408,11.504,33.002,11.77z M29.672,13.693
			c-0.314,0.325-0.512,0.764-0.594,1.318h3.836c-0.04-0.591-0.238-1.04-0.593-1.346c-0.354-0.306-0.795-0.459-1.32-0.459
			C30.43,13.207,29.986,13.369,29.672,13.693z"/>
		<path fill="#FFFFFF" d="M43.219,12.086c0.558,0.461,0.836,1.226,0.836,2.293v5.734h-2.281v-5.18c0-0.448-0.059-0.792-0.178-1.031
			c-0.217-0.438-0.631-0.656-1.24-0.656c-0.75,0-1.266,0.32-1.544,0.961c-0.146,0.339-0.218,0.771-0.218,1.297v4.609h-2.227v-8.5
			h2.156v1.242c0.285-0.438,0.555-0.752,0.81-0.945c0.456-0.344,1.034-0.516,1.735-0.516C41.944,11.395,42.661,11.625,43.219,12.086
			z"/>
		<path fill="#FFFFFF" d="M48.344,11.598v5.133c0,0.484,0.058,0.85,0.172,1.094c0.201,0.433,0.598,0.648,1.189,0.648
			c0.756,0,1.274-0.307,1.555-0.922c0.145-0.333,0.217-0.773,0.217-1.32v-4.633h2.258v8.516H51.57V18.91
			c-0.02,0.026-0.072,0.104-0.155,0.234c-0.083,0.131-0.182,0.245-0.296,0.344c-0.348,0.312-0.685,0.526-1.01,0.641
			c-0.324,0.114-0.705,0.172-1.141,0.172c-1.257,0-2.104-0.453-2.539-1.359c-0.244-0.5-0.367-1.236-0.367-2.211v-5.133H48.344z"/>
	</g>
</g>
<g id="back" display="none">
	<g display="inline">
		<linearGradient id="SVGID_3_" gradientUnits="userSpaceOnUse" x1="33.9995" y1="0.25" x2="33.9995" y2="16.3955">
			<stop  offset="0" style="stop-color:#5E5E5E"/>
			<stop  offset="1" style="stop-color:#000000"/>
		</linearGradient>
		<path fill="url(#SVGID_3_)" d="M0.25,19.75c0,4.971,4.029,9,9,9h49.5c4.971,0,9-4.029,9-9V9.25c0-4.971-4.029-9-9-9H9.25
			c-4.971,0-9,4.029-9,9V19.75z"/>
		<path d="M58.75,29H9.25C4.149,29,0,24.851,0,19.75V9.25C0,4.149,4.149,0,9.25,0h49.5C63.851,0,68,4.149,68,9.25v10.5
			C68,24.851,63.851,29,58.75,29z M9.25,0.5C4.425,0.5,0.5,4.425,0.5,9.25v10.5c0,4.824,3.925,8.75,8.75,8.75h49.5
			c4.825,0,8.75-3.926,8.75-8.75V9.25c0-4.825-3.925-8.75-8.75-8.75H9.25z"/>
	</g>
	<g display="inline">
		<path fill="#FFFFFF" d="M24.7,9.76c0.357,0.496,0.536,1.09,0.536,1.781c0,0.713-0.18,1.286-0.541,1.718
			c-0.202,0.243-0.498,0.464-0.89,0.665c0.595,0.217,1.045,0.56,1.348,1.029c0.303,0.47,0.455,1.041,0.455,1.71
			c0,0.691-0.173,1.312-0.52,1.86c-0.221,0.364-0.496,0.671-0.827,0.919c-0.373,0.285-0.812,0.48-1.319,0.586
			s-1.056,0.158-1.649,0.158h-5.259V8.517h5.64C23.098,8.538,24.106,8.952,24.7,9.76z M18.362,10.543v2.573h2.837
			c0.506,0,0.918-0.096,1.234-0.289c0.316-0.192,0.474-0.534,0.474-1.025c0-0.543-0.209-0.902-0.627-1.077
			c-0.36-0.122-0.82-0.182-1.379-0.182H18.362z M18.362,15.049v3.111h2.833c0.506,0,0.9-0.068,1.182-0.205
			c0.511-0.254,0.767-0.739,0.767-1.457c0-0.607-0.248-1.024-0.744-1.251c-0.277-0.126-0.666-0.192-1.167-0.198H18.362z"/>
		<path fill="#FFFFFF" d="M30.883,14.938c0.42-0.053,0.721-0.119,0.901-0.198c0.325-0.137,0.487-0.351,0.487-0.641
			c0-0.354-0.125-0.598-0.374-0.732c-0.249-0.135-0.614-0.202-1.095-0.202c-0.541,0-0.923,0.132-1.148,0.396
			c-0.161,0.195-0.268,0.459-0.321,0.792h-2.178c0.048-0.755,0.26-1.375,0.636-1.861c0.599-0.76,1.627-1.14,3.085-1.14
			c0.949,0,1.792,0.188,2.529,0.562c0.737,0.375,1.105,1.083,1.105,2.122v3.959c0,0.274,0.005,0.607,0.016,0.998
			c0.016,0.295,0.061,0.496,0.135,0.602s0.185,0.192,0.333,0.261v0.333h-2.455c-0.068-0.174-0.116-0.338-0.143-0.491
			c-0.026-0.152-0.047-0.327-0.063-0.522c-0.313,0.338-0.675,0.626-1.083,0.863c-0.488,0.279-1.041,0.42-1.656,0.42
			c-0.786,0-1.435-0.224-1.947-0.669c-0.513-0.446-0.769-1.078-0.769-1.896c0-1.062,0.412-1.829,1.236-2.304
			c0.452-0.259,1.117-0.444,1.994-0.555L30.883,14.938z M32.263,15.991c-0.145,0.089-0.29,0.162-0.438,0.218
			c-0.147,0.055-0.349,0.106-0.606,0.154l-0.514,0.095c-0.481,0.085-0.827,0.188-1.037,0.309c-0.355,0.206-0.533,0.525-0.533,0.958
			c0,0.386,0.108,0.664,0.326,0.836s0.481,0.257,0.792,0.257c0.493,0,0.947-0.143,1.363-0.428c0.416-0.284,0.631-0.805,0.647-1.56
			V15.991z"/>
		<path fill="#FFFFFF" d="M41.634,14.653c-0.043-0.322-0.151-0.612-0.325-0.871c-0.255-0.348-0.648-0.522-1.183-0.522
			c-0.763,0-1.284,0.377-1.564,1.132c-0.147,0.4-0.222,0.932-0.222,1.595c0,0.633,0.074,1.141,0.222,1.525
			c0.271,0.718,0.778,1.076,1.524,1.076c0.529,0,0.904-0.143,1.127-0.428s0.357-0.654,0.405-1.108h2.304
			c-0.053,0.687-0.302,1.336-0.745,1.948c-0.708,0.987-1.757,1.48-3.146,1.48s-2.412-0.412-3.067-1.235s-0.982-1.891-0.982-3.203
			c0-1.48,0.361-2.632,1.085-3.456c0.725-0.824,1.723-1.235,2.996-1.235c1.084,0,1.97,0.243,2.659,0.729s1.098,1.343,1.225,2.573
			H41.634z"/>
		<path fill="#FFFFFF" d="M45.444,8.556h2.217v6.296l2.847-3.255h2.806l-3.093,3.215l3.213,5.376h-2.746L48.596,16.5l-0.935,0.972
			v2.716h-2.217V8.556z"/>
	</g>
</g>
<g id="back_x5F_active">
	<g>
		<linearGradient id="SVGID_4_" gradientUnits="userSpaceOnUse" x1="33.9995" y1="0.25" x2="33.9995" y2="16.3955">
			<stop  offset="0" style="stop-color:#5D6066"/>
			<stop  offset="1" style="stop-color:#1E2329"/>
		</linearGradient>
		<path fill="url(#SVGID_4_)" d="M0.25,19.75c0,4.971,4.029,9,9,9h49.5c4.971,0,9-4.029,9-9V9.25c0-4.971-4.029-9-9-9H9.25
			c-4.971,0-9,4.029-9,9V19.75z"/>
		<path d="M58.75,29H9.25C4.149,29,0,24.851,0,19.75V9.25C0,4.149,4.149,0,9.25,0h49.5C63.851,0,68,4.149,68,9.25v10.5
			C68,24.851,63.851,29,58.75,29z M9.25,0.5C4.425,0.5,0.5,4.425,0.5,9.25v10.5c0,4.824,3.925,8.75,8.75,8.75h49.5
			c4.825,0,8.75-3.926,8.75-8.75V9.25c0-4.825-3.925-8.75-8.75-8.75H9.25z"/>
	</g>
	<g>
		<path fill="#FFFFFF" d="M24.7,9.76c0.357,0.496,0.536,1.09,0.536,1.781c0,0.713-0.18,1.286-0.541,1.718
			c-0.202,0.243-0.498,0.464-0.89,0.665c0.595,0.217,1.045,0.56,1.348,1.029c0.303,0.47,0.455,1.041,0.455,1.71
			c0,0.691-0.173,1.312-0.52,1.86c-0.221,0.364-0.496,0.671-0.827,0.919c-0.373,0.285-0.812,0.48-1.319,0.586
			s-1.056,0.158-1.649,0.158h-5.259V8.517h5.64C23.098,8.538,24.106,8.952,24.7,9.76z M18.362,10.543v2.573h2.837
			c0.506,0,0.918-0.096,1.234-0.289c0.316-0.192,0.474-0.534,0.474-1.025c0-0.543-0.209-0.902-0.627-1.077
			c-0.36-0.122-0.82-0.182-1.379-0.182H18.362z M18.362,15.049v3.111h2.833c0.506,0,0.9-0.068,1.182-0.205
			c0.511-0.254,0.767-0.739,0.767-1.457c0-0.607-0.248-1.024-0.744-1.251c-0.277-0.126-0.666-0.192-1.167-0.198H18.362z"/>
		<path fill="#FFFFFF" d="M30.883,14.938c0.42-0.053,0.721-0.119,0.901-0.198c0.325-0.137,0.487-0.351,0.487-0.641
			c0-0.354-0.125-0.598-0.374-0.732c-0.249-0.135-0.614-0.202-1.095-0.202c-0.541,0-0.923,0.132-1.148,0.396
			c-0.161,0.195-0.268,0.459-0.321,0.792h-2.178c0.048-0.755,0.26-1.375,0.636-1.861c0.599-0.76,1.627-1.14,3.085-1.14
			c0.949,0,1.792,0.188,2.529,0.562c0.737,0.375,1.105,1.083,1.105,2.122v3.959c0,0.274,0.005,0.607,0.016,0.998
			c0.016,0.295,0.061,0.496,0.135,0.602s0.185,0.192,0.333,0.261v0.333h-2.455c-0.068-0.174-0.116-0.338-0.143-0.491
			c-0.026-0.152-0.047-0.327-0.063-0.522c-0.313,0.338-0.675,0.626-1.083,0.863c-0.488,0.279-1.041,0.42-1.656,0.42
			c-0.786,0-1.435-0.224-1.947-0.669c-0.513-0.446-0.769-1.078-0.769-1.896c0-1.062,0.412-1.829,1.236-2.304
			c0.452-0.259,1.117-0.444,1.994-0.555L30.883,14.938z M32.263,15.991c-0.145,0.089-0.29,0.162-0.438,0.218
			c-0.147,0.055-0.349,0.106-0.606,0.154l-0.514,0.095c-0.481,0.085-0.827,0.188-1.037,0.309c-0.355,0.206-0.533,0.525-0.533,0.958
			c0,0.386,0.108,0.664,0.326,0.836s0.481,0.257,0.792,0.257c0.493,0,0.947-0.143,1.363-0.428c0.416-0.284,0.631-0.805,0.647-1.56
			V15.991z"/>
		<path fill="#FFFFFF" d="M41.634,14.653c-0.043-0.322-0.151-0.612-0.325-0.871c-0.255-0.348-0.648-0.522-1.183-0.522
			c-0.763,0-1.284,0.377-1.564,1.132c-0.147,0.4-0.222,0.932-0.222,1.595c0,0.633,0.074,1.141,0.222,1.525
			c0.271,0.718,0.778,1.076,1.524,1.076c0.529,0,0.904-0.143,1.127-0.428s0.357-0.654,0.405-1.108h2.304
			c-0.053,0.687-0.302,1.336-0.745,1.948c-0.708,0.987-1.757,1.48-3.146,1.48s-2.412-0.412-3.067-1.235s-0.982-1.891-0.982-3.203
			c0-1.48,0.361-2.632,1.085-3.456c0.725-0.824,1.723-1.235,2.996-1.235c1.084,0,1.97,0.243,2.659,0.729s1.098,1.343,1.225,2.573
			H41.634z"/>
		<path fill="#FFFFFF" d="M45.444,8.556h2.217v6.296l2.847-3.255h2.806l-3.093,3.215l3.213,5.376h-2.746L48.596,16.5l-0.935,0.972
			v2.716h-2.217V8.556z"/>
	</g>
</g>
</svg>
