<?xml version="1.0" encoding="utf-8"?>
<!-- Generator: Adobe Illustrator 15.0.1, SVG Export Plug-In . SVG Version: 6.00 Build 0)  -->
<!DOCTYPE svg PUBLIC "-//W3C//DTD SVG 1.0//EN" "http://www.w3.org/TR/2001/REC-SVG-20010904/DTD/svg10.dtd">
<svg version="1.0" xmlns="http://www.w3.org/2000/svg" xmlns:xlink="http://www.w3.org/1999/xlink" x="0px" y="0px" width="23px"
	 height="30px" viewBox="0 0 23 30" enable-background="new 0 0 23 30" xml:space="preserve">
<g id="button">
	<g>
		<linearGradient id="SVGID_1_" gradientUnits="userSpaceOnUse" x1="11.5083" y1="0.2588" x2="11.5083" y2="16.9608">
			<stop  offset="0" style="stop-color:#5D6066"/>
			<stop  offset="1" style="stop-color:#1E2329"/>
		</linearGradient>
		<path fill="url(#SVGID_1_)" d="M0.249,20.431c0,5.143-0.459,9.311,4.394,9.311h14.156c4.854,0,3.905-4.168,3.905-9.311V9.569
			c0-5.142,0.948-9.31-3.905-9.31H4.643c-4.853,0-4.394,4.168-4.394,9.31V20.431z"/>
		<path d="M18.799,30H4.643c-4.98,0-4.638-4.293-4.638-9.569V9.569C0.005,4.292-0.337,0,4.643,0h14.156
			c4.98,0,4.149,4.292,4.149,9.569v10.862C22.948,25.707,23.779,30,18.799,30z M4.643,0.517c-4.711,0-4.149,4.061-4.149,9.052
			v10.862c0,4.991-0.562,9.052,4.149,9.052h14.156c4.711,0,3.661-4.061,3.661-9.052V9.569c0-4.991,1.05-9.052-3.661-9.052H4.643z"/>
	</g>
</g>
<g id="button_x5F_clicked" display="none">
	<g display="inline">
		<linearGradient id="SVGID_2_" gradientUnits="userSpaceOnUse" x1="11.5083" y1="0.2588" x2="11.5083" y2="16.9608">
			<stop  offset="0" style="stop-color:#5E5E5E"/>
			<stop  offset="1" style="stop-color:#000000"/>
		</linearGradient>
		<path fill="url(#SVGID_2_)" d="M0.249,20.431c0,5.143-0.459,9.311,4.394,9.311h14.156c4.854,0,3.905-4.168,3.905-9.311V9.569
			c0-5.142,0.948-9.31-3.905-9.31H4.643c-4.853,0-4.394,4.168-4.394,9.31V20.431z"/>
		<path d="M18.799,30H4.643c-4.98,0-4.638-4.293-4.638-9.569V9.569C0.005,4.292-0.337,0,4.643,0h14.156
			c4.98,0,4.149,4.292,4.149,9.569v10.862C22.948,25.707,23.779,30,18.799,30z M4.643,0.517c-4.711,0-4.149,4.061-4.149,9.052
			v10.862c0,4.991-0.562,9.052,4.149,9.052h14.156c4.711,0,3.661-4.061,3.661-9.052V9.569c0-4.991,1.05-9.052-3.661-9.052H4.643z"/>
	</g>
</g>
</svg>
