<?xml version="1.0" encoding="utf-8"?>
<!-- Generator: Adobe Illustrator 15.0.1, SVG Export Plug-In . SVG Version: 6.00 Build 0)  -->
<!DOCTYPE svg PUBLIC "-//W3C//DTD SVG 1.0//EN" "http://www.w3.org/TR/2001/REC-SVG-20010904/DTD/svg10.dtd">
<svg version="1.0" id="Layer_1" xmlns="http://www.w3.org/2000/svg" xmlns:xlink="http://www.w3.org/1999/xlink" x="0px" y="0px"
	 width="68px" height="29px" viewBox="0 0 68 29" enable-background="new 0 0 68 29" xml:space="preserve">
<g>
	<g>
		<linearGradient id="SVGID_1_" gradientUnits="userSpaceOnUse" x1="33.9995" y1="0.25" x2="33.9995" y2="16.3955">
			<stop  offset="0" style="stop-color:#5E5E5E"/>
			<stop  offset="1" style="stop-color:#000000"/>
		</linearGradient>
		<path fill="url(#SVGID_1_)" d="M0.25,19.75c0,4.971,4.029,9,9,9h49.5c4.971,0,9-4.029,9-9V9.25c0-4.971-4.029-9-9-9H9.25
			c-4.971,0-9,4.029-9,9V19.75z"/>
		<path d="M58.75,29H9.25C4.149,29,0,24.851,0,19.75V9.25C0,4.149,4.149,0,9.25,0h49.5C63.851,0,68,4.149,68,9.25v10.5
			C68,24.851,63.851,29,58.75,29z M9.25,0.5C4.425,0.5,0.5,4.425,0.5,9.25v10.5c0,4.824,3.925,8.75,8.75,8.75h49.5
			c4.825,0,8.75-3.926,8.75-8.75V9.25c0-4.825-3.925-8.75-8.75-8.75H9.25z"/>
	</g>
	<g>
		<path fill="#FFFFFF" d="M21.944,8.598h3.462v11.516h-2.242v-7.789c0-0.224,0.003-0.538,0.008-0.941
			c0.006-0.403,0.008-0.715,0.008-0.934l-2.182,9.664h-2.339l-2.167-9.664c0,0.219,0.003,0.53,0.008,0.934
			c0.006,0.404,0.008,0.718,0.008,0.941v7.789h-2.242V8.598h3.502l2.096,9.055L21.944,8.598z"/>
		<path fill="#FFFFFF" d="M33.002,11.77c0.595,0.266,1.086,0.686,1.473,1.26c0.348,0.506,0.574,1.093,0.678,1.761
			c0.061,0.391,0.084,0.955,0.074,1.69h-6.203c0.035,0.854,0.332,1.453,0.891,1.797c0.34,0.214,0.75,0.32,1.229,0.32
			c0.507,0,0.919-0.13,1.236-0.391c0.172-0.141,0.325-0.336,0.457-0.586h2.273c-0.06,0.506-0.334,1.019-0.824,1.539
			c-0.764,0.828-1.832,1.242-3.205,1.242c-1.133,0-2.133-0.35-2.999-1.048s-1.3-1.835-1.3-3.409c0-1.475,0.392-2.606,1.174-3.394
			c0.781-0.787,1.797-1.181,3.045-1.181C31.741,11.371,32.408,11.504,33.002,11.77z M29.672,13.693
			c-0.314,0.325-0.512,0.764-0.594,1.318h3.836c-0.04-0.591-0.238-1.04-0.593-1.346c-0.354-0.306-0.795-0.459-1.32-0.459
			C30.43,13.207,29.986,13.369,29.672,13.693z"/>
		<path fill="#FFFFFF" d="M43.219,12.086c0.558,0.461,0.836,1.226,0.836,2.293v5.734h-2.281v-5.18c0-0.448-0.059-0.792-0.178-1.031
			c-0.217-0.438-0.631-0.656-1.24-0.656c-0.75,0-1.266,0.32-1.544,0.961c-0.146,0.339-0.218,0.771-0.218,1.297v4.609h-2.227v-8.5
			h2.156v1.242c0.285-0.438,0.555-0.752,0.81-0.945c0.456-0.344,1.034-0.516,1.735-0.516C41.944,11.395,42.661,11.625,43.219,12.086
			z"/>
		<path fill="#FFFFFF" d="M48.344,11.598v5.133c0,0.484,0.058,0.85,0.172,1.094c0.201,0.433,0.598,0.648,1.189,0.648
			c0.756,0,1.274-0.307,1.555-0.922c0.145-0.333,0.217-0.773,0.217-1.32v-4.633h2.258v8.516H51.57V18.91
			c-0.02,0.026-0.072,0.104-0.155,0.234c-0.083,0.131-0.182,0.245-0.296,0.344c-0.348,0.312-0.685,0.526-1.01,0.641
			c-0.324,0.114-0.705,0.172-1.141,0.172c-1.257,0-2.104-0.453-2.539-1.359c-0.244-0.5-0.367-1.236-0.367-2.211v-5.133H48.344z"/>
	</g>
</g>
</svg>
