<?xml version="1.0" encoding="utf-8"?>
<!-- Generator: Adobe Illustrator 15.0.1, SVG Export Plug-In . SVG Version: 6.00 Build 0)  -->
<!DOCTYPE svg PUBLIC "-//W3C//DTD SVG 1.1//EN" "http://www.w3.org/Graphics/SVG/1.1/DTD/svg11.dtd">
<svg version="1.1" xmlns="http://www.w3.org/2000/svg" xmlns:xlink="http://www.w3.org/1999/xlink" x="0px" y="0px" width="30px"
	 height="30px" viewBox="0 0 30 30" enable-background="new 0 0 30 30" xml:space="preserve">
<g id="docs" display="none">
	<path display="inline" fill="#FFFFFF" d="M23.289,8.646L18.772,4.13c-0.146-0.145-0.342-0.227-0.548-0.227H7.257
		c-0.427,0-0.774,0.347-0.774,0.774v20.645c0,0.428,0.347,0.774,0.774,0.774h15.484c0.428,0,0.775-0.347,0.775-0.774V9.194
		C23.517,8.988,23.435,8.791,23.289,8.646z M18.741,6.289c0.705,0.704,1.686,1.685,2.39,2.389h-2.39V6.289z M21.968,24.548H8.032
		V5.452h9.676l0.002,3.742c0,0.285,0.23,0.516,0.515,0.516h3.743V24.548z M11.128,9.064h4.517c0.285,0,0.517-0.23,0.517-0.516
		c0-0.286-0.231-0.517-0.517-0.517h-4.517c-0.285,0-0.516,0.23-0.516,0.517C10.612,8.834,10.843,9.064,11.128,9.064z M10.612,11.774
		c0,0.285,0.231,0.516,0.516,0.516h7.742c0.285,0,0.517-0.23,0.517-0.516s-0.231-0.517-0.517-0.517h-7.742
		C10.843,11.258,10.612,11.489,10.612,11.774z M18.87,14.484h-7.742c-0.285,0-0.516,0.23-0.516,0.516s0.231,0.517,0.516,0.517h7.742
		c0.285,0,0.517-0.231,0.517-0.517S19.155,14.484,18.87,14.484z M18.87,17.71h-7.742c-0.285,0-0.516,0.23-0.516,0.516
		c0,0.286,0.231,0.517,0.516,0.517h7.742c0.285,0,0.517-0.23,0.517-0.517C19.387,17.94,19.155,17.71,18.87,17.71z M17.579,20.936
		h-6.451c-0.285,0-0.516,0.23-0.516,0.516s0.231,0.517,0.516,0.517h6.451c0.286,0,0.518-0.231,0.518-0.517
		S17.865,20.936,17.579,20.936z"/>
</g>
<g id="hearings" display="none">
	<path display="inline" fill="#FFFFFF" d="M19.123,12.242h-8.246c-0.461,0-0.838,0.377-0.838,0.838v1.543
		c0,0.399,0.289,0.721,0.665,0.802v0.29c0,2.373,1.923,4.296,4.295,4.296s4.297-1.924,4.297-4.296v-0.29
		c0.376-0.082,0.665-0.403,0.665-0.802v-1.543C19.961,12.62,19.584,12.242,19.123,12.242z"/>
	<path display="inline" fill="#FFFFFF" d="M21.376,15.479v-1.877c0-0.296-0.24-0.536-0.538-0.536c-0.296,0-0.536,0.24-0.536,0.536
		v1.877c0,2.924-2.38,5.302-5.303,5.302s-5.301-2.378-5.301-5.302v-1.877c0-0.296-0.24-0.536-0.536-0.536
		c-0.298,0-0.538,0.24-0.538,0.536v1.877c0,3.115,2.247,5.712,5.206,6.263v1.065h-2.326c-1.25,0-2.271,1.019-2.271,2.267
		c0,0.627,0.511,1.138,1.135,1.138h9.266c0.624,0,1.133-0.511,1.133-1.138c0-1.248-1.02-2.267-2.27-2.267h-2.328v-1.065
		C19.127,21.191,21.376,18.596,21.376,15.479z"/>
	<path display="inline" fill="#FFFFFF" d="M17.804,4.757v0.924c0,0.349-0.281,0.634-0.63,0.634c-0.352,0-0.633-0.285-0.633-0.634
		V4.01c-0.277-0.104-0.568-0.177-0.869-0.222v1.894c0,0.349-0.282,0.634-0.632,0.634s-0.631-0.285-0.631-0.634V3.788
		c-0.302,0.045-0.592,0.117-0.87,0.222v1.672c0,0.349-0.281,0.634-0.631,0.634s-0.631-0.285-0.631-0.634V4.757
		c-0.931,0.788-1.533,1.95-1.533,3.263v3.26h8.593V8.02C19.337,6.708,18.734,5.545,17.804,4.757z"/>
</g>
<g id="news" display="none">
	<g display="inline">
		<path fill="#FFFFFF" d="M6.555,7.852c0-0.39,0.19-0.552,0.592-0.552c0.195,0,0.368,0.075,0.473,0.248l1.649,2.661h0.011V7.753
			c0-0.304,0.173-0.454,0.454-0.454c0.282,0,0.454,0.15,0.454,0.454v3.248c0,0.375-0.161,0.586-0.557,0.586
			c-0.3,0-0.398-0.062-0.518-0.253l-1.64-2.585H7.463v2.385c0,0.304-0.173,0.453-0.453,0.453c-0.283,0-0.455-0.149-0.455-0.453
			V7.852z M11.072,7.927c0-0.42,0.22-0.552,0.552-0.552h2.214c0.274,0,0.477,0.08,0.477,0.378c0,0.301-0.202,0.381-0.477,0.381
			h-1.822V9.03h1.597c0.248,0,0.443,0.069,0.443,0.362c0,0.293-0.195,0.362-0.443,0.362h-1.597v1h1.868
			c0.275,0,0.476,0.081,0.476,0.38c0,0.298-0.2,0.379-0.476,0.379h-2.26c-0.332,0-0.552-0.132-0.552-0.552V7.927z M18.968,11.139
			c-0.086,0.328-0.224,0.449-0.568,0.449c-0.356,0-0.483-0.149-0.564-0.465l-0.614-2.523H17.21l-0.617,2.523
			c-0.072,0.315-0.205,0.465-0.561,0.465c-0.347,0-0.482-0.121-0.57-0.449l-0.81-3.143c-0.023-0.086-0.047-0.179-0.047-0.271
			c0-0.287,0.236-0.426,0.454-0.426c0.241,0,0.387,0.11,0.443,0.386l0.558,2.747h0.011l0.646-2.782
			c0.05-0.229,0.144-0.351,0.493-0.351c0.396,0,0.476,0.191,0.535,0.449l0.625,2.685h0.013l0.563-2.747
			c0.057-0.276,0.201-0.386,0.425-0.386c0.218,0,0.452,0.139,0.452,0.426c0,0.092-0.021,0.184-0.045,0.271L18.968,11.139z
			 M22.487,9.116c0.861,0.196,1.08,0.707,1.08,1.189c0,0.748-0.562,1.305-1.701,1.305c-1.195,0-1.73-0.597-1.73-1.046
			c0-0.231,0.166-0.391,0.396-0.391c0.512,0,0.38,0.747,1.334,0.747c0.488,0,0.758-0.27,0.758-0.546c0-0.167-0.08-0.35-0.402-0.43
			l-1.062-0.271c-0.857-0.219-1.012-0.689-1.012-1.132c0-0.919,0.851-1.264,1.649-1.264c0.736,0,1.604,0.413,1.604,0.965
			c0,0.236-0.2,0.374-0.431,0.374c-0.437,0-0.355-0.615-1.235-0.615c-0.438,0-0.679,0.201-0.679,0.488
			c0,0.288,0.345,0.38,0.643,0.449L22.487,9.116z"/>
		<path fill="#FFFFFF" d="M13.835,13.923c0,0.154-0.123,0.276-0.274,0.276H6.943c-0.152,0-0.275-0.122-0.275-0.276
			c0-0.151,0.123-0.275,0.275-0.275h6.617C13.712,13.648,13.835,13.772,13.835,13.923z M13.835,15.264
			c0,0.153-0.123,0.277-0.274,0.277H6.943c-0.152,0-0.275-0.124-0.275-0.277c0-0.151,0.123-0.275,0.275-0.275h6.617
			C13.712,14.989,13.835,15.113,13.835,15.264z M13.835,16.607c0,0.15-0.123,0.275-0.274,0.275H6.943
			c-0.152,0-0.275-0.125-0.275-0.275c0-0.153,0.123-0.276,0.275-0.276h6.617C13.712,16.331,13.835,16.454,13.835,16.607z
			 M13.835,17.949c0,0.152-0.123,0.275-0.274,0.275H6.943c-0.152,0-0.275-0.123-0.275-0.275s0.123-0.276,0.275-0.276h6.617
			C13.712,17.673,13.835,17.797,13.835,17.949z M13.835,19.29c0,0.151-0.123,0.274-0.274,0.274H6.943
			c-0.152,0-0.275-0.123-0.275-0.274c0-0.152,0.123-0.276,0.275-0.276h6.617C13.712,19.014,13.835,19.138,13.835,19.29z
			 M13.835,20.631c0,0.153-0.123,0.276-0.274,0.276H6.943c-0.152,0-0.275-0.123-0.275-0.276c0-0.152,0.123-0.275,0.275-0.275h6.617
			C13.712,20.355,13.835,20.479,13.835,20.631z M13.835,21.973c0,0.152-0.123,0.275-0.274,0.275H6.943
			c-0.152,0-0.275-0.123-0.275-0.275s0.123-0.277,0.275-0.277h6.617C13.712,21.695,13.835,21.82,13.835,21.973z M23.347,20.631
			c0,0.153-0.123,0.276-0.275,0.276h-7.349c-0.151,0-0.274-0.123-0.274-0.276c0-0.152,0.123-0.275,0.274-0.275h7.349
			C23.224,20.355,23.347,20.479,23.347,20.631z M23.347,21.973c0,0.152-0.123,0.275-0.275,0.275h-7.349
			c-0.151,0-0.274-0.123-0.274-0.275s0.123-0.277,0.274-0.277h7.349C23.224,21.695,23.347,21.82,23.347,21.973z"/>
		<path fill="#FFFFFF" d="M26.481,5.845c0-0.275-0.109-0.546-0.306-0.744c-0.196-0.193-0.466-0.308-0.743-0.308H4.565
			c-0.277,0-0.545,0.115-0.741,0.308C3.627,5.299,3.517,5.57,3.517,5.845v17.69c0,1.318,1.088,1.938,2.646,1.938H24.01
			c1.616,0,2.474-0.625,2.474-2.236L26.481,5.845z M23.351,24.28H6.342c-1.138,0-1.633-0.625-1.633-1.823V5.953L25.29,5.985
			l0.002,16.592C25.292,23.65,24.431,24.28,23.351,24.28z"/>
		<path fill="#FFFFFF" d="M22.909,13.55h-6.986c-0.246,0-0.446,0.202-0.446,0.447v4.958c0,0.247,0.2,0.448,0.446,0.448h6.986
			c0.244,0,0.447-0.201,0.447-0.448v-4.958C23.356,13.752,23.153,13.55,22.909,13.55z M15.978,18.951
			c-0.021,0-0.041-0.018-0.041-0.039V16.91l1.558-2.14c0.088-0.123,0.232-0.123,0.322,0l3.048,4.181H15.978z M22.878,18.912
			c0,0.021-0.02,0.039-0.039,0.039H21.4l-1.116-1.529l0.753-0.891c0.107-0.129,0.284-0.129,0.392,0l1.449,1.717V18.912z"/>
	</g>
</g>
<g id="notices">
	<path fill="#FFFFFF" d="M19.315,10.921c-0.075-0.263-0.394-0.612-0.714-0.639c-0.451-0.038-1.69-0.789-0.863-1.616
		c0.826-0.826,2.555-1.578,4.545-1.653c1.992-0.075,4.246,0.639,4.696,1.24c0.451,0.602,0.263,1.277-0.338,1.541
		c-0.601,0.263-0.864,0.526-1.015,0.789c0,0-0.939-0.375-3.155-0.3C20.255,10.357,19.315,10.921,19.315,10.921z"/>
	<path fill="#FFFFFF" d="M18.098,13.3c0.047,0.209,0.267,1.548,0.295,2.233c0.027,0.685,0.006,1.712,0.129,1.972
		c0.122,0.26,0.418,0.438,0.635,0.355c0.215-0.08,1.943-0.771,3.613-0.777c1.67-0.008,3.072,0.451,3.33,0.457
		c0.256,0.005,0.556-0.159,0.525-0.588c-0.031-0.473-0.188-1.204-0.249-2.318c-0.062-1.115,0.062-1.752,0.043-2.012
		c-0.032-0.472-0.239-0.819-0.705-1.043c-0.466-0.224-1.53-0.547-3.329-0.5s-3.314,0.785-3.707,1.119S18.02,12.957,18.098,13.3z"/>
	<path fill="#FFFFFF" d="M19.592,18.438c0,0,0.35,0.49,0.174,0.735c-0.174,0.245-1.016,0.665-0.91,1.017
		c0.105,0.35,1.682,1.471,4.239,1.366s3.889-1.401,3.925-1.928c0.018-0.282-0.771-0.63-0.982-0.7
		c-0.21-0.07-0.174-0.631-0.104-0.807c0,0-1.997-0.42-3.608-0.244C20.712,18.051,19.592,18.438,19.592,18.438z"/>
	<path fill="#FFFFFF" d="M17.664,15.073c0,0,0.094,0.59,0.152,1.017c0.05,0.362,0.078,1.357,0.078,1.357s0.02,0.852-0.896,1.34
		c-1.134,0.605-2.207,0.105-2.207,0.105s-1.612,0.42-2.978,1.227c-1.367,0.806-4.45,3.048-6.167,3.783
		c-1.717,0.736-3.153,0.666-3.293-0.104s0.631-1.892,2.312-2.733c1.681-0.84,5.711-2.207,7.568-3.082
		c1.857-0.877,1.927-1.156,1.927-1.156s-0.35-1.717,1.507-2.559c0.97-0.439,1.751,0.525,1.751,0.525L17.664,15.073z"/>
</g>
<g id="updates" display="none">
	<path display="inline" fill="#FFFFFF" d="M5.042,10.904C5.874,10,8.681,5.969,15.273,5.969c6.34,0,9.133,3.567,10.339,4.935
		c0.811,0.918-0.675,1.904-1.144,1.436c-0.379-0.379-3.422-4.575-8.862-4.575c-5.439,0-7.907,3.044-9.222,4.359
		C5.376,13.132,4.214,11.804,5.042,10.904z"/>
	<path display="inline" fill="#FFFFFF" d="M7.988,16.045c0.342-0.487,2.71-3.808,7.357-3.808c4.178,0,6.295,2.457,7.196,3.538
		c0.957,1.147-0.359,1.909-0.882,1.459s-2.594-3.17-6.376-3.17c-3.782,0-6.016,3.044-6.268,3.224
		c-0.252,0.18-0.684,0.198-1.026-0.145C7.68,16.835,7.679,16.483,7.988,16.045z"/>
	<path display="inline" fill="#FFFFFF" d="M11.31,19.743c0.403-0.402,1.577-1.921,4.104-1.936c2.588-0.015,3.701,1.456,4.15,2.091
		s-0.574,1.331-0.991,0.944c-0.419-0.388-1.294-1.615-3.19-1.596c-1.781,0.019-2.943,1.409-3.19,1.627
		c-0.248,0.217-0.681,0.186-0.898-0.062C11.079,20.564,10.967,20.087,11.31,19.743z"/>
</g>
<g id="about" display="none">
	<path display="inline" fill="#FFFFFF" d="M25.666,15.292c0,5.822-4.719,10.542-10.542,10.542c-5.822,0-10.542-4.72-10.542-10.542
		S9.302,4.75,15.125,4.75C20.947,4.75,25.666,9.47,25.666,15.292z M15.068,6.058c-5.084,0-9.206,4.122-9.206,9.206
		s4.122,9.206,9.206,9.206s9.205-4.121,9.205-9.206S20.152,6.058,15.068,6.058z"/>
	<g display="inline">
		<path fill="#FFFFFF" d="M14.82,19.361c-0.074,0.166-0.056,0.277,0.074,0.277c0.26,0,1.279-0.723,1.742-1.168
			c0.223,0,0.408,0.205,0.353,0.445c-0.723,0.965-2.373,2.207-3.893,2.207c-0.482,0-0.853-0.52-0.853-0.742
			c0-0.204,0.074-0.426,0.223-0.797l1.928-4.617c0.056-0.148,0.056-0.26-0.037-0.26c-0.315,0-1.354,0.779-1.65,1.057
			c-0.223-0.037-0.371-0.278-0.297-0.445c1.001-1.224,2.744-2.132,3.727-2.132c0.408,0,0.853,0.408,0.853,0.816
			c0,0.185-0.13,0.538-0.241,0.815L14.82,19.361z M16.934,9.127c0.631,0,1.039,0.389,1.039,1.094c0,0.816-0.557,1.501-1.41,1.501
			c-0.686,0-1.093-0.463-1.093-1.057C15.469,9.851,16.081,9.127,16.934,9.127z"/>
	</g>
</g>
</svg>
