<?xml version="1.0" encoding="utf-8"?>
<!-- Generator: Adobe Illustrator 15.0.1, SVG Export Plug-In . SVG Version: 6.00 Build 0)  -->
<!DOCTYPE svg PUBLIC "-//W3C//DTD SVG 1.0//EN" "http://www.w3.org/TR/2001/REC-SVG-20010904/DTD/svg10.dtd">
<svg version="1.0" xmlns="http://www.w3.org/2000/svg" xmlns:xlink="http://www.w3.org/1999/xlink" x="0px" y="0px" width="33px"
	 height="29px" viewBox="0 0 33 29" enable-background="new 0 0 33 29" xml:space="preserve">
<g id="reload" display="none">
	<g display="inline">
		<g>
			<linearGradient id="SVGID_1_" gradientUnits="userSpaceOnUse" x1="16.4995" y1="0.25" x2="16.4995" y2="16.3955">
				<stop  offset="0" style="stop-color:#5E5E5E"/>
				<stop  offset="1" style="stop-color:#000000"/>
			</linearGradient>
			<path fill="url(#SVGID_1_)" d="M0.25,19.75c0,4.971,4.029,9,9,9h14.5c4.971,0,9-4.029,9-9V9.25c0-4.971-4.029-9-9-9H9.25
				c-4.971,0-9,4.029-9,9V19.75z"/>
			<path d="M23.75,29H9.25C4.149,29,0,24.851,0,19.75V9.25C0,4.149,4.149,0,9.25,0h14.5C28.851,0,33,4.149,33,9.25v10.5
				C33,24.851,28.851,29,23.75,29z M9.25,0.5C4.425,0.5,0.5,4.425,0.5,9.25v10.5c0,4.824,3.925,8.75,8.75,8.75h14.5
				c4.825,0,8.75-3.926,8.75-8.75V9.25c0-4.825-3.925-8.75-8.75-8.75H9.25z"/>
		</g>
		<path fill="#FFFFFF" d="M22.525,15.867c0,3.323-2.703,6.026-6.025,6.026c-3.323,0-6.026-2.703-6.026-6.026
			c0-3.28,2.637-5.952,5.902-6.02v2.812l3.703-2.138l3.703-2.139l-3.703-2.139l-3.703-2.138v2.741
			c-4.92,0.067-8.902,4.085-8.902,9.02c0,4.978,4.049,9.026,9.026,9.026c4.977,0,9.025-4.049,9.025-9.026H22.525z"/>
	</g>
</g>
<g id="reload_x5F_active">
	<g>
		<linearGradient id="SVGID_2_" gradientUnits="userSpaceOnUse" x1="16.4995" y1="0.25" x2="16.4995" y2="16.3955">
			<stop  offset="0" style="stop-color:#5D6066"/>
			<stop  offset="1" style="stop-color:#1E2329"/>
		</linearGradient>
		<path fill="url(#SVGID_2_)" d="M0.25,19.75c0,4.971,4.029,9,9,9h14.5c4.971,0,9-4.029,9-9V9.25c0-4.971-4.029-9-9-9H9.25
			c-4.971,0-9,4.029-9,9V19.75z"/>
		<path d="M23.75,29H9.25C4.149,29,0,24.851,0,19.75V9.25C0,4.149,4.149,0,9.25,0h14.5C28.851,0,33,4.149,33,9.25v10.5
			C33,24.851,28.851,29,23.75,29z M9.25,0.5C4.425,0.5,0.5,4.425,0.5,9.25v10.5c0,4.824,3.925,8.75,8.75,8.75h14.5
			c4.825,0,8.75-3.926,8.75-8.75V9.25c0-4.825-3.925-8.75-8.75-8.75H9.25z"/>
	</g>
	<path fill="#FFFFFF" d="M22.525,15.867c0,3.323-2.703,6.026-6.025,6.026c-3.323,0-6.026-2.703-6.026-6.026
		c0-3.28,2.637-5.952,5.902-6.02v2.812l3.703-2.138l3.703-2.139l-3.703-2.139l-3.703-2.138v2.741
		c-4.92,0.067-8.902,4.085-8.902,9.02c0,4.978,4.049,9.026,9.026,9.026c4.977,0,9.025-4.049,9.025-9.026H22.525z"/>
</g>
</svg>
