<?xml version="1.0" encoding="utf-8"?>
<!-- Generator: Adobe Illustrator 15.0.1, SVG Export Plug-In . SVG Version: 6.00 Build 0)  -->
<!DOCTYPE svg PUBLIC "-//W3C//DTD SVG 1.0//EN" "http://www.w3.org/TR/2001/REC-SVG-20010904/DTD/svg10.dtd">
<svg version="1.0" xmlns="http://www.w3.org/2000/svg" xmlns:xlink="http://www.w3.org/1999/xlink" x="0px" y="0px" width="152px"
	 height="31px" viewBox="0 0 152 31" enable-background="new 0 0 152 31" xml:space="preserve">
<g id="house-active" display="none">
	<g display="inline">
		<g>
			<linearGradient id="SVGID_1_" gradientUnits="userSpaceOnUse" x1="75.9995" y1="0.2539" x2="75.9995" y2="17.5279">
				<stop  offset="0" style="stop-color:#5E5E5E"/>
				<stop  offset="1" style="stop-color:#000000"/>
			</linearGradient>
			<path fill="url(#SVGID_1_)" d="M9.272,0.254c-4.983,0-9.021,3.891-9.021,8.69v13.111c0,4.8,4.039,8.69,9.021,8.69h142.477V0.254
				H9.272z"/>
			<path d="M152,31H9.272C4.16,31,0,26.988,0,22.056V8.944C0,4.013,4.16,0,9.272,0H152V31z M9.272,0.508
				c-4.836,0-8.771,3.785-8.771,8.436v13.111c0,4.651,3.935,8.437,8.771,8.437h142.226V0.508H9.272z"/>
		</g>
		<g>
			<path fill="#FFFFFF" d="M52.677,21.205V9.501h2.398v4.462h4.491V9.501h2.398v11.704h-2.398V15.98h-4.491v5.225H52.677z"/>
			<path fill="#FFFFFF" d="M71.23,20.146c-0.721,0.902-1.816,1.353-3.284,1.353c-1.469,0-2.563-0.45-3.284-1.353
				c-0.721-0.901-1.082-1.987-1.082-3.257c0-1.249,0.361-2.33,1.082-3.245c0.721-0.916,1.815-1.373,3.284-1.373
				c1.468,0,2.563,0.458,3.284,1.373c0.721,0.915,1.082,1.996,1.082,3.245C72.312,18.159,71.951,19.245,71.23,20.146z
				 M69.443,18.896c0.35-0.471,0.525-1.14,0.525-2.006c0-0.868-0.175-1.535-0.525-2.002c-0.351-0.468-0.852-0.702-1.505-0.702
				c-0.654,0-1.156,0.234-1.509,0.702c-0.353,0.467-0.529,1.134-0.529,2.002c0,0.866,0.176,1.535,0.529,2.006
				c0.353,0.471,0.855,0.706,1.509,0.706C68.591,19.602,69.092,19.366,69.443,18.896z"/>
			<path fill="#FFFFFF" d="M76.137,12.55v5.216c0,0.493,0.057,0.863,0.171,1.112c0.203,0.439,0.601,0.659,1.193,0.659
				c0.761,0,1.279-0.312,1.56-0.938c0.146-0.338,0.22-0.786,0.22-1.342V12.55h2.266v8.655h-2.172v-1.223
				c-0.021,0.026-0.073,0.106-0.156,0.238s-0.183,0.249-0.297,0.35c-0.35,0.317-0.687,0.535-1.013,0.65
				c-0.325,0.116-0.707,0.175-1.145,0.175c-1.261,0-2.11-0.46-2.548-1.381c-0.245-0.509-0.368-1.258-0.368-2.248V12.55H76.137z"/>
			<path fill="#FFFFFF" d="M85.449,18.442c0.047,0.401,0.148,0.688,0.307,0.857c0.278,0.302,0.793,0.452,1.543,0.452
				c0.441,0,0.792-0.066,1.053-0.198c0.259-0.132,0.39-0.331,0.39-0.596c0-0.254-0.105-0.447-0.314-0.579
				c-0.209-0.133-0.988-0.36-2.337-0.684c-0.971-0.243-1.656-0.548-2.052-0.913c-0.397-0.36-0.596-0.878-0.596-1.556
				c0-0.799,0.31-1.486,0.931-2.061c0.62-0.575,1.493-0.862,2.62-0.862c1.068,0,1.938,0.216,2.611,0.647s1.059,1.176,1.159,2.235
				h-2.234c-0.031-0.291-0.113-0.521-0.244-0.691c-0.245-0.307-0.665-0.46-1.257-0.46c-0.487,0-0.835,0.076-1.042,0.23
				s-0.31,0.333-0.31,0.54c0,0.259,0.109,0.448,0.329,0.564c0.22,0.122,0.997,0.331,2.333,0.627
				c0.891,0.211,1.557,0.532,2.001,0.961c0.439,0.434,0.659,0.977,0.659,1.628c0,0.857-0.316,1.558-0.947,2.101
				c-0.631,0.542-1.606,0.813-2.926,0.813c-1.346,0-2.339-0.288-2.98-0.861c-0.643-0.575-0.962-1.307-0.962-2.195H85.449z"/>
			<path fill="#FFFFFF" d="M98.212,12.725c0.596,0.271,1.087,0.698,1.476,1.281c0.351,0.515,0.578,1.11,0.682,1.79
				c0.059,0.398,0.084,0.971,0.072,1.718H94.22c0.034,0.869,0.332,1.478,0.894,1.826c0.342,0.218,0.751,0.326,1.231,0.326
				c0.509,0,0.923-0.132,1.24-0.397c0.174-0.143,0.327-0.341,0.46-0.596h2.281c-0.061,0.514-0.337,1.035-0.829,1.564
				c-0.765,0.842-1.836,1.263-3.214,1.263c-1.138,0-2.14-0.355-3.01-1.065c-0.869-0.709-1.303-1.864-1.303-3.465
				c0-1.5,0.392-2.649,1.176-3.449c0.785-0.8,1.804-1.2,3.056-1.2C96.946,12.32,97.616,12.455,98.212,12.725z M94.87,14.68
				c-0.317,0.33-0.515,0.776-0.595,1.34h3.849c-0.042-0.601-0.239-1.057-0.596-1.368c-0.357-0.311-0.798-0.466-1.325-0.466
				C95.629,14.186,95.186,14.351,94.87,14.68z"/>
		</g>
	</g>
</g>
<g id="house-inactive" display="none">
	<g display="inline">
		<linearGradient id="SVGID_2_" gradientUnits="userSpaceOnUse" x1="75.9995" y1="0.2539" x2="75.9995" y2="17.5279">
			<stop  offset="0" style="stop-color:#FAFBFB"/>
			<stop  offset="1" style="stop-color:#CACACA"/>
		</linearGradient>
		<path fill="url(#SVGID_2_)" d="M9.272,0.254c-4.983,0-9.021,3.891-9.021,8.69v13.112c0,4.8,4.039,8.69,9.021,8.69h142.477V0.254
			H9.272z"/>
		<path fill="#AEADAE" d="M152,31H9.272C4.16,31,0,26.988,0,22.056V8.944C0,4.013,4.16,0,9.272,0H152V31z M9.272,0.508
			c-4.836,0-8.771,3.784-8.771,8.436v13.112c0,4.651,3.935,8.437,8.771,8.437h142.226V0.508H9.272z"/>
	</g>
	<g display="inline">
		<g>
			<path fill="#7F7F7F" d="M52.753,21.113V9.598h2.391v4.391h4.477V9.598h2.391v11.516h-2.391v-5.141h-4.477v5.141H52.753z"/>
			<path fill="#7F7F7F" d="M71.246,20.071c-0.719,0.888-1.81,1.331-3.273,1.331c-1.464,0-2.555-0.443-3.273-1.331
				c-0.719-0.887-1.078-1.955-1.078-3.204c0-1.229,0.359-2.292,1.078-3.192s1.81-1.351,3.273-1.351c1.463,0,2.555,0.45,3.273,1.351
				s1.078,1.964,1.078,3.192C72.324,18.116,71.964,19.185,71.246,20.071z M69.464,18.841c0.349-0.463,0.523-1.121,0.523-1.974
				c0-0.854-0.175-1.51-0.523-1.97c-0.349-0.46-0.849-0.69-1.5-0.69c-0.651,0-1.152,0.23-1.504,0.69s-0.527,1.116-0.527,1.97
				c0,0.853,0.176,1.511,0.527,1.974s0.853,0.694,1.504,0.694C68.615,19.535,69.115,19.304,69.464,18.841z"/>
			<path fill="#7F7F7F" d="M76.136,12.598v5.133c0,0.484,0.057,0.849,0.171,1.094c0.202,0.433,0.599,0.648,1.189,0.648
				c0.758,0,1.275-0.308,1.555-0.922c0.146-0.333,0.219-0.773,0.219-1.32v-4.633h2.258v8.516h-2.164V19.91
				c-0.021,0.026-0.073,0.104-0.156,0.234s-0.182,0.245-0.296,0.344c-0.349,0.312-0.685,0.526-1.009,0.641s-0.705,0.172-1.142,0.172
				c-1.257,0-2.104-0.453-2.54-1.359c-0.244-0.5-0.366-1.237-0.366-2.211v-5.133H76.136z"/>
			<path fill="#7F7F7F" d="M85.418,18.395c0.047,0.396,0.148,0.677,0.306,0.844c0.277,0.297,0.79,0.445,1.538,0.445
				c0.439,0,0.789-0.065,1.049-0.195c0.259-0.13,0.389-0.325,0.389-0.586c0-0.25-0.105-0.44-0.313-0.57s-0.985-0.354-2.329-0.672
				c-0.968-0.239-1.65-0.539-2.045-0.898c-0.396-0.354-0.594-0.864-0.594-1.531c0-0.786,0.309-1.462,0.928-2.027
				c0.618-0.565,1.488-0.848,2.611-0.848c1.064,0,1.932,0.212,2.603,0.637s1.056,1.157,1.155,2.199h-2.227
				c-0.031-0.286-0.113-0.513-0.243-0.68c-0.245-0.302-0.663-0.453-1.253-0.453c-0.486,0-0.832,0.075-1.039,0.227
				c-0.206,0.151-0.309,0.328-0.309,0.531c0,0.255,0.109,0.44,0.328,0.555c0.22,0.12,0.994,0.325,2.325,0.617
				c0.888,0.208,1.552,0.523,1.995,0.945c0.438,0.427,0.656,0.961,0.656,1.602c0,0.844-0.314,1.532-0.943,2.066
				c-0.629,0.533-1.602,0.801-2.916,0.801c-1.342,0-2.332-0.283-2.971-0.848c-0.641-0.565-0.959-1.285-0.959-2.16H85.418z"/>
			<path fill="#7F7F7F" d="M98.139,12.77c0.594,0.267,1.084,0.687,1.471,1.26c0.35,0.507,0.576,1.093,0.68,1.761
				c0.059,0.392,0.084,0.955,0.072,1.69H94.16c0.034,0.854,0.331,1.453,0.891,1.797c0.34,0.214,0.748,0.32,1.227,0.32
				c0.508,0,0.92-0.13,1.236-0.391c0.174-0.141,0.326-0.336,0.459-0.586h2.273c-0.061,0.505-0.336,1.019-0.826,1.539
				c-0.763,0.828-1.83,1.242-3.203,1.242c-1.134,0-2.133-0.35-3-1.048c-0.866-0.698-1.299-1.835-1.299-3.409
				c0-1.476,0.391-2.606,1.172-3.394c0.783-0.787,1.798-1.181,3.046-1.181C96.877,12.371,97.545,12.504,98.139,12.77z
				 M94.808,14.693c-0.315,0.324-0.513,0.764-0.593,1.318h3.836c-0.041-0.591-0.238-1.04-0.594-1.346s-0.795-0.459-1.32-0.459
				C95.564,14.207,95.122,14.369,94.808,14.693z"/>
		</g>
	</g>
</g>
<g id="senate-active" display="none">
	<g display="inline">
		<linearGradient id="SVGID_3_" gradientUnits="userSpaceOnUse" x1="76.0005" y1="17.8721" x2="76.0005" y2="-2.7869">
			<stop  offset="0" style="stop-color:#000000"/>
			<stop  offset="1" style="stop-color:#5E5E5E"/>
		</linearGradient>
		<path fill="url(#SVGID_3_)" d="M142.728,0.254H0.251v30.492h142.477c4.983,0,9.021-3.891,9.021-8.69V8.944
			C151.749,4.145,147.711,0.254,142.728,0.254z"/>
		<path d="M142.728,31H0V0h142.728C147.84,0,152,4.013,152,8.944v13.112C152,26.988,147.84,31,142.728,31z M0.501,30.492h142.226
			c4.836,0,8.771-3.785,8.771-8.437V8.944c0-4.651-3.935-8.436-8.771-8.436H0.501V30.492z"/>
	</g>
	<g display="inline">
		<path fill="#FFFFFF" d="M52.718,17.723c0.074,0.526,0.221,0.919,0.438,1.18c0.399,0.474,1.083,0.711,2.05,0.711
			c0.58,0,1.05-0.062,1.412-0.188c0.687-0.239,1.029-0.685,1.029-1.336c0-0.38-0.168-0.675-0.504-0.883
			c-0.336-0.203-0.869-0.383-1.599-0.539l-1.247-0.273c-1.226-0.271-2.067-0.565-2.525-0.883c-0.776-0.531-1.164-1.362-1.164-2.492
			c0-1.031,0.379-1.888,1.139-2.57s1.875-1.023,3.346-1.023c1.229,0,2.276,0.321,3.144,0.965s1.322,1.577,1.364,2.801h-2.312
			c-0.043-0.692-0.353-1.185-0.929-1.477c-0.384-0.192-0.862-0.289-1.434-0.289c-0.635,0-1.143,0.125-1.522,0.375
			c-0.379,0.25-0.568,0.599-0.568,1.047c0,0.411,0.187,0.719,0.561,0.922c0.24,0.136,0.75,0.294,1.53,0.477l2.021,0.477
			c0.886,0.208,1.55,0.487,1.992,0.836c0.687,0.542,1.03,1.325,1.03,2.352c0,1.052-0.407,1.926-1.22,2.621
			c-0.813,0.695-1.962,1.043-3.447,1.043c-1.516,0-2.708-0.343-3.577-1.027s-1.303-1.626-1.303-2.824H52.718z"/>
		<path fill="#FFFFFF" d="M67.025,12.934c0.594,0.267,1.085,0.687,1.472,1.26c0.349,0.507,0.575,1.093,0.679,1.761
			c0.06,0.392,0.084,0.955,0.073,1.69h-6.202c0.035,0.854,0.332,1.453,0.891,1.797c0.34,0.214,0.749,0.32,1.228,0.32
			c0.507,0,0.919-0.13,1.236-0.391c0.173-0.141,0.326-0.336,0.458-0.586h2.273c-0.06,0.505-0.335,1.019-0.825,1.539
			c-0.763,0.828-1.831,1.242-3.204,1.242c-1.133,0-2.133-0.35-3-1.048c-0.866-0.698-1.299-1.835-1.299-3.409
			c0-1.476,0.391-2.606,1.173-3.394c0.782-0.787,1.797-1.181,3.045-1.181C65.764,12.535,66.431,12.668,67.025,12.934z
			 M63.694,14.857c-0.315,0.324-0.512,0.764-0.593,1.318h3.836c-0.041-0.591-0.238-1.04-0.593-1.346s-0.795-0.459-1.32-0.459
			C64.452,14.371,64.009,14.533,63.694,14.857z"/>
		<path fill="#FFFFFF" d="M77.241,13.25c0.558,0.461,0.837,1.226,0.837,2.293v5.734h-2.282v-5.18c0-0.448-0.06-0.792-0.178-1.031
			c-0.217-0.438-0.631-0.656-1.241-0.656c-0.75,0-1.265,0.32-1.543,0.961c-0.145,0.339-0.217,0.771-0.217,1.297v4.609H70.39v-8.5
			h2.156v1.242c0.285-0.438,0.555-0.753,0.809-0.945c0.457-0.344,1.035-0.516,1.735-0.516C75.967,12.559,76.684,12.789,77.241,13.25
			z"/>
		<path fill="#FFFFFF" d="M83.521,16.098c0.414-0.052,0.71-0.117,0.889-0.195c0.32-0.136,0.48-0.347,0.48-0.633
			c0-0.349-0.123-0.59-0.369-0.723c-0.245-0.133-0.605-0.199-1.08-0.199c-0.533,0-0.911,0.13-1.133,0.391
			c-0.158,0.192-0.264,0.453-0.316,0.781h-2.148c0.047-0.745,0.256-1.356,0.627-1.836c0.592-0.75,1.605-1.125,3.045-1.125
			c0.936,0,1.768,0.185,2.494,0.555c0.729,0.37,1.092,1.067,1.092,2.094v3.906c0,0.271,0.004,0.599,0.016,0.984
			c0.016,0.292,0.059,0.489,0.133,0.594c0.072,0.104,0.182,0.19,0.328,0.258v0.328h-2.422c-0.068-0.172-0.115-0.333-0.141-0.484
			c-0.027-0.151-0.047-0.323-0.062-0.516c-0.31,0.333-0.666,0.617-1.069,0.852c-0.481,0.275-1.026,0.414-1.634,0.414
			c-0.775,0-1.416-0.221-1.922-0.66c-0.506-0.44-0.758-1.063-0.758-1.871c0-1.047,0.406-1.805,1.219-2.273
			c0.447-0.255,1.103-0.438,1.969-0.547L83.521,16.098z M84.883,17.137c-0.143,0.089-0.287,0.16-0.432,0.215
			c-0.146,0.055-0.346,0.105-0.599,0.152l-0.507,0.094c-0.475,0.083-0.816,0.185-1.023,0.305c-0.351,0.203-0.525,0.519-0.525,0.945
			c0,0.38,0.106,0.655,0.32,0.824c0.215,0.169,0.475,0.254,0.781,0.254c0.487,0,0.936-0.141,1.346-0.422s0.622-0.794,0.639-1.539
			V17.137z"/>
		<path fill="#FFFFFF" d="M88.172,14.426V12.84h1.188v-2.375h2.203v2.375h1.383v1.586h-1.383v4.5c0,0.349,0.043,0.566,0.133,0.652
			c0.088,0.086,0.359,0.129,0.812,0.129c0.066,0,0.139-0.001,0.215-0.004c0.074-0.003,0.148-0.007,0.223-0.012v1.664l-1.055,0.039
			c-1.053,0.036-1.771-0.146-2.156-0.547c-0.25-0.255-0.375-0.648-0.375-1.18v-5.242H88.172z"/>
		<path fill="#FFFFFF" d="M99.924,12.934c0.594,0.267,1.084,0.687,1.471,1.26c0.35,0.507,0.576,1.093,0.68,1.761
			c0.059,0.392,0.084,0.955,0.072,1.69h-6.201c0.034,0.854,0.331,1.453,0.891,1.797c0.34,0.214,0.748,0.32,1.227,0.32
			c0.508,0,0.92-0.13,1.236-0.391c0.174-0.141,0.326-0.336,0.459-0.586h2.273c-0.061,0.505-0.336,1.019-0.826,1.539
			c-0.763,0.828-1.83,1.242-3.203,1.242c-1.134,0-2.133-0.35-3-1.048c-0.866-0.698-1.299-1.835-1.299-3.409
			c0-1.476,0.391-2.606,1.172-3.394c0.783-0.787,1.798-1.181,3.046-1.181C98.662,12.535,99.33,12.668,99.924,12.934z M96.593,14.857
			c-0.315,0.324-0.513,0.764-0.593,1.318h3.836c-0.041-0.591-0.238-1.04-0.594-1.346s-0.795-0.459-1.32-0.459
			C97.35,14.371,96.907,14.533,96.593,14.857z"/>
	</g>
</g>
<g id="senate-inactive">
	<g>
		<linearGradient id="SVGID_4_" gradientUnits="userSpaceOnUse" x1="76.0005" y1="17.8721" x2="76.0005" y2="-2.7869">
			<stop  offset="0" style="stop-color:#CACACA"/>
			<stop  offset="1" style="stop-color:#FAFBFB"/>
		</linearGradient>
		<path fill="url(#SVGID_4_)" d="M142.728,0.254H0.251v30.492h142.477c4.983,0,9.021-3.891,9.021-8.69V8.944
			C151.749,4.145,147.711,0.254,142.728,0.254z"/>
		<path fill="#AEADAE" d="M142.728,31H0V0h142.728C147.84,0,152,4.013,152,8.944v13.111C152,26.988,147.84,31,142.728,31z
			 M0.501,30.492h142.226c4.836,0,8.771-3.785,8.771-8.437V8.944c0-4.651-3.935-8.436-8.771-8.436H0.501V30.492z"/>
	</g>
	<g>
		<path fill="#7F7F7F" d="M52.718,17.723c0.074,0.526,0.221,0.919,0.438,1.18c0.399,0.474,1.083,0.711,2.05,0.711
			c0.58,0,1.05-0.062,1.412-0.188c0.687-0.239,1.029-0.685,1.029-1.336c0-0.38-0.168-0.675-0.504-0.883
			c-0.336-0.203-0.869-0.383-1.599-0.539l-1.247-0.273c-1.226-0.271-2.067-0.565-2.525-0.883c-0.776-0.531-1.164-1.362-1.164-2.492
			c0-1.031,0.379-1.888,1.139-2.57s1.875-1.023,3.346-1.023c1.229,0,2.276,0.321,3.144,0.965s1.322,1.577,1.364,2.801h-2.312
			c-0.043-0.692-0.353-1.185-0.929-1.477c-0.384-0.192-0.862-0.289-1.434-0.289c-0.635,0-1.143,0.125-1.522,0.375
			c-0.379,0.25-0.568,0.599-0.568,1.047c0,0.411,0.187,0.719,0.561,0.922c0.24,0.136,0.75,0.294,1.53,0.477l2.021,0.477
			c0.886,0.208,1.55,0.487,1.992,0.836c0.687,0.542,1.03,1.325,1.03,2.352c0,1.052-0.407,1.926-1.22,2.621
			c-0.813,0.695-1.962,1.043-3.447,1.043c-1.516,0-2.708-0.343-3.577-1.027s-1.303-1.626-1.303-2.824H52.718z"/>
		<path fill="#7F7F7F" d="M67.025,12.934c0.594,0.267,1.085,0.687,1.472,1.26c0.349,0.507,0.575,1.093,0.679,1.761
			c0.06,0.392,0.084,0.955,0.073,1.69h-6.202c0.035,0.854,0.332,1.453,0.891,1.797c0.34,0.214,0.749,0.32,1.228,0.32
			c0.507,0,0.919-0.13,1.236-0.391c0.173-0.141,0.326-0.336,0.458-0.586h2.273c-0.06,0.505-0.335,1.019-0.825,1.539
			c-0.763,0.828-1.831,1.242-3.204,1.242c-1.133,0-2.133-0.35-3-1.048c-0.866-0.698-1.299-1.835-1.299-3.409
			c0-1.476,0.391-2.606,1.173-3.394c0.782-0.787,1.797-1.181,3.045-1.181C65.764,12.535,66.431,12.668,67.025,12.934z
			 M63.694,14.857c-0.315,0.324-0.512,0.764-0.593,1.318h3.836c-0.041-0.591-0.238-1.04-0.593-1.346s-0.795-0.459-1.32-0.459
			C64.452,14.371,64.009,14.533,63.694,14.857z"/>
		<path fill="#7F7F7F" d="M77.241,13.25c0.558,0.461,0.837,1.226,0.837,2.293v5.734h-2.282v-5.18c0-0.448-0.06-0.792-0.178-1.031
			c-0.217-0.438-0.631-0.656-1.241-0.656c-0.75,0-1.265,0.32-1.543,0.961c-0.145,0.339-0.217,0.771-0.217,1.297v4.609H70.39v-8.5
			h2.156v1.242c0.285-0.438,0.555-0.753,0.809-0.945c0.457-0.344,1.035-0.516,1.735-0.516C75.967,12.559,76.684,12.789,77.241,13.25
			z"/>
		<path fill="#7F7F7F" d="M83.521,16.098c0.414-0.052,0.71-0.117,0.889-0.195c0.32-0.136,0.48-0.347,0.48-0.633
			c0-0.349-0.123-0.59-0.369-0.723c-0.245-0.133-0.605-0.199-1.08-0.199c-0.533,0-0.911,0.13-1.133,0.391
			c-0.158,0.192-0.264,0.453-0.316,0.781h-2.148c0.047-0.745,0.256-1.356,0.627-1.836c0.592-0.75,1.605-1.125,3.045-1.125
			c0.936,0,1.768,0.185,2.494,0.555c0.729,0.37,1.092,1.067,1.092,2.094v3.906c0,0.271,0.004,0.599,0.016,0.984
			c0.016,0.292,0.059,0.489,0.133,0.594c0.072,0.104,0.182,0.19,0.328,0.258v0.328h-2.422c-0.068-0.172-0.115-0.333-0.141-0.484
			c-0.027-0.151-0.047-0.323-0.062-0.516c-0.31,0.333-0.666,0.617-1.069,0.852c-0.481,0.275-1.026,0.414-1.634,0.414
			c-0.775,0-1.416-0.221-1.922-0.66c-0.506-0.44-0.758-1.063-0.758-1.871c0-1.047,0.406-1.805,1.219-2.273
			c0.447-0.255,1.103-0.438,1.969-0.547L83.521,16.098z M84.883,17.137c-0.143,0.089-0.287,0.16-0.432,0.215
			c-0.146,0.055-0.346,0.105-0.599,0.152l-0.507,0.094c-0.475,0.083-0.816,0.185-1.023,0.305c-0.351,0.203-0.525,0.519-0.525,0.945
			c0,0.38,0.106,0.655,0.32,0.824c0.215,0.169,0.475,0.254,0.781,0.254c0.487,0,0.936-0.141,1.346-0.422s0.622-0.794,0.639-1.539
			V17.137z"/>
		<path fill="#7F7F7F" d="M88.172,14.426V12.84h1.188v-2.375h2.203v2.375h1.383v1.586h-1.383v4.5c0,0.349,0.043,0.566,0.133,0.652
			c0.088,0.086,0.359,0.129,0.812,0.129c0.066,0,0.139-0.001,0.215-0.004c0.074-0.003,0.148-0.007,0.223-0.012v1.664l-1.055,0.039
			c-1.053,0.036-1.771-0.146-2.156-0.547c-0.25-0.255-0.375-0.648-0.375-1.18v-5.242H88.172z"/>
		<path fill="#7F7F7F" d="M99.924,12.934c0.594,0.267,1.084,0.687,1.471,1.26c0.35,0.507,0.576,1.093,0.68,1.761
			c0.059,0.392,0.084,0.955,0.072,1.69h-6.201c0.034,0.854,0.331,1.453,0.891,1.797c0.34,0.214,0.748,0.32,1.227,0.32
			c0.508,0,0.92-0.13,1.236-0.391c0.174-0.141,0.326-0.336,0.459-0.586h2.273c-0.061,0.505-0.336,1.019-0.826,1.539
			c-0.763,0.828-1.83,1.242-3.203,1.242c-1.134,0-2.133-0.35-3-1.048c-0.866-0.698-1.299-1.835-1.299-3.409
			c0-1.476,0.391-2.606,1.172-3.394c0.783-0.787,1.798-1.181,3.046-1.181C98.662,12.535,99.33,12.668,99.924,12.934z M96.593,14.857
			c-0.315,0.324-0.513,0.764-0.593,1.318h3.836c-0.041-0.591-0.238-1.04-0.594-1.346s-0.795-0.459-1.32-0.459
			C97.35,14.371,96.907,14.533,96.593,14.857z"/>
	</g>
</g>
</svg>
